<?xml version="1.0" standalone="no"?>
<!DOCTYPE svg PUBLIC "-//W3C//DTD SVG 20010904//EN"
 "http://www.w3.org/TR/2001/REC-SVG-20010904/DTD/svg10.dtd">
<svg version="1.0" xmlns="http://www.w3.org/2000/svg"
 width="600.000000pt" height="600.000000pt" viewBox="0 0 600.000000 600.000000"
 preserveAspectRatio="xMidYMid meet">
<g transform="translate(0.000000,600.000000) scale(0.050000,-0.050000)"
fill="#000000" stroke="none">
<path d="M4550 9039 c-892 -84 -1663 -858 -1704 -1709 -18 -363 54 -558 404
-1091 370 -563 427 -782 308 -1172 -102 -336 -298 -645 -676 -1065 -106 -117
-209 -233 -230 -258 l-38 -44 1201 0 1200 0 46 115 c87 217 295 642 369 754
112 168 122 171 596 171 566 0 562 -2 586 305 7 99 28 199 52 250 22 47 45
124 51 170 6 47 28 106 48 133 25 32 37 81 37 153 0 155 26 205 127 250 172
76 171 100 -17 499 -149 316 -159 388 -88 623 106 349 28 825 -188 1152 -409
614 -1078 859 -2084 764z m994 -246 c809 -211 1202 -887 770 -1319 -114 -114
-209 -147 -522 -184 -610 -70 -681 -102 -814 -372 -125 -254 -168 -289 -422
-346 -34 -8 -87 -56 -147 -133 -257 -334 -714 -317 -1072 41 -654 654 -136
1966 901 2281 375 114 942 128 1306 32z"/>
<path d="M5317 8505 c-276 -289 -473 -628 -548 -941 -48 -199 -27 -664 29
-664 30 0 124 290 153 474 64 398 226 689 574 1032 98 97 176 179 172 183 -11
8 -202 71 -218 71 -7 0 -80 -70 -162 -155z"/>
<path d="M6454 9041 c-338 -35 -386 -71 -220 -165 l103 -58 176 24 c967 128
1876 -332 1876 -950 0 -364 -216 -546 -710 -602 -798 -89 -893 -217 -601 -810
188 -383 183 -491 -28 -591 -68 -33 -89 -75 -90 -180 0 -33 -17 -94 -38 -135
-20 -40 -43 -105 -51 -144 -7 -38 -35 -117 -62 -175 -37 -80 -49 -139 -49
-246 0 -355 -107 -419 -693 -419 -395 0 -426 -3 -467 -40 -49 -44 -400 -739
-400 -792 0 -47 186 -58 1011 -58 l704 0 45 115 c100 254 352 734 432 823 l83
92 458 10 c579 13 587 17 587 321 0 102 12 161 50 242 27 59 50 137 50 173 0
36 19 91 42 122 31 42 43 91 46 190 5 152 26 183 157 232 124 46 117 116 -45
460 -152 322 -164 401 -100 628 235 841 -305 1660 -1250 1895 -182 45 -745 66
-1016 38z"/>
</g>
</svg>
